whois-mono.sfdir
StartChar: uni0000
Encoding: 0 0 184
Width: 996
VWidth: 0
Flags: W
HStem: 530 279<398.821 599.179>
VStem: 361 276<565.575 772.065>
LayerCount: 2
Back
Fore
SplineSet
499 809 m 0
 576 809 637 745 637 668 c 0
 637 591 576 530 499 530 c 0
 422 530 361 591 361 668 c 0
 361 745 422 809 499 809 c 0
EndSplineSet
Validated: 1
EndChar
StartChar: exclam
Encoding: 33 33 217
Width: 996
VWidth: 0
Flags: W
HStem: 0 251<405.634 592.366> 1311 20G<422 571>
VStem: 376 246<28.5554 222.038> 422 149<559.879 1331>
LayerCount: 2
Back
Fore
SplineSet
422 1331 m 1xd0
 571 1331 l 1
 571 745 l 1
 548 448 l 1
 445 448 l 1
 422 745 l 1
 422 1331 l 1xd0
622 125 m 0xe0
 622 56 568 0 499 0 c 0
 430 0 376 56 376 125 c 0
 376 194 430 251 499 251 c 0
 568 251 622 194 622 125 c 0xe0
EndSplineSet
Validated: 1
EndChar
StartChar: quotedbl
Encoding: 34 34 218
Width: 996
VWidth: 0
Flags: W
HStem: 999 332<315 435 563 684>
VStem: 315 120<999 1331> 563 121<999 1331>
LayerCount: 2
Back
Fore
SplineSet
563 1331 m 1
 684 1331 l 1
 684 999 l 1
 563 999 l 1
 563 1331 l 1
315 1331 m 1
 435 1331 l 1
 435 999 l 1
 315 999 l 1
 315 1331 l 1
EndSplineSet
Validated: 1
EndChar
StartChar: numbersign
Encoding: 35 35 219
Width: 996
VWidth: 0
Flags: W
HStem: 0 21G<220 334.67 566 679.687> 0 21G<220 334.67 566 679.687> 266 113<84 873> 781 112<136 911>
LayerCount: 2
Back
Fore
SplineSet
566 0 m 1xb0
 663 1162 l 1
 776 1162 l 1
 678 0 l 1
 566 0 l 1xb0
220 0 m 1
 317 1162 l 1
 430 1162 l 1
 333 0 l 1
 220 0 l 1
136 893 m 1
 911 893 l 1
 911 781 l 1
 136 781 l 1
 136 893 l 1
84 379 m 1
 873 379 l 1
 873 266 l 1
 84 266 l 1
 84 379 l 1
EndSplineSet
Validated: 5
EndChar
StartChar: dollar
Encoding: 36 36 220
Width: 996
VWidth: 0
Flags: HW
HStem: 2 130<317.516 451 573 648.357> 1194 130<363.449 451 573 672.535>
VStem: 151 131<863.462 1109.56> 451 122<-141 6.57715 139 586 774 1194 1317.06 1454>
LayerCount: 2
Back
Fore
SplineSet
451 1454 m 1
 573 1454 l 1
 573 1324 l 1
 777 1295 847 1132 847 1132 c 1
 735 1068 l 1
 735 1068 705 1169 573 1195 c 1
 573 720 l 1
 749 642 854 560 873 430 c 0
 875.324 412.431 876.473 394.757 876.473 377.123 c 0
 876.473 205.065 767.107 36.7464 573 5 c 1
 573 -141 l 1
 451 -141 l 1
 451 2 l 1
 226 20 161 144 128 210 c 1
 243 269 l 1
 290 192 323 141 451 132 c 1
 451 631 l 1
 337 681 154 784 151 960 c 0
 150.98 961.435 150.97 962.875 150.97 964.319 c 0
 150.97 1108.71 250.01 1293.31 451 1324 c 1
 451 1454 l 1
451 774 m 1
 451 1194 l 1
 351.408 1171.32 281.958 1090.3 281.958 968.205 c 0
 281.958 966.478 281.972 964.743 282 963 c 0
 282 962.16 281.992 961.195 281.992 960.111 c 0
 281.992 936.655 285.646 857.155 451 774 c 1
573 586 m 1
 573 139 l 1
 695.868 169.938 747.633 281.356 747.633 375.869 c 0
 747.633 388.277 746.741 400.395 745 412 c 0
 739 453 723 510 573 586 c 1
EndSplineSet
Validated: 1
EndChar
StartChar: percent
Encoding: 37 37 221
Width: 996
VWidth: 0
Flags: W
HStem: 0 120<645.763 821.846> 372 120<645.763 821.846> 839 120<180.763 356.846> 1211 120<180.763 356.846>
VStem: 36 115<987.467 1182.53> 385 113<987.467 1182.53> 501 115<148.467 343.533> 850 113<148.467 343.533>
LayerCount: 2
Back
Fore
SplineSet
501 246 m 0
 501 382 604 492 732 492 c 0
 860 492 963 382 963 246 c 0
 963 110 860 0 732 0 c 0
 604 0 501 110 501 246 c 0
616 246 m 0
 616 176 668 120 733 120 c 0
 798 120 850 176 850 246 c 0
 850 316 798 372 733 372 c 0
 668 372 616 316 616 246 c 0
900 1119 m 1
 256 207 l 1
 94 208 l 1
 738 1120 l 1
 900 1119 l 1
36 1085 m 0
 36 1221 139 1331 267 1331 c 0
 395 1331 498 1221 498 1085 c 0
 498 949 395 839 267 839 c 0
 139 839 36 949 36 1085 c 0
151 1085 m 0
 151 1015 203 959 268 959 c 0
 333 959 385 1015 385 1085 c 0
 385 1155 333 1211 268 1211 c 0
 203 1211 151 1155 151 1085 c 0
EndSplineSet
Validated: 1
EndChar
StartChar: ampersand
Encoding: 38 38 222
Width: 996
VWidth: 0
Flags: W
HStem: 0 21G<748.044 868> 0 21G<748.044 868> 1215 117<340.492 535.823>
VStem: 591 112<1057 1162.5> 752 116<0 157.092>
LayerCount: 2
Back
Fore
SplineSet
591 1037 m 1x78
 584 1075 566 1215 453 1215 c 0
 286 1215 272 1073 358 942 c 1
 652 477 l 1
 678 562 713 698 713 698 c 1
 832 664 l 1
 736 344 l 1
 736 344 812 211 843 122 c 0
 866 56 868 0 868 0 c 1
 752 0 l 1xb8
 752 0 743 58 734 91 c 0
 720 145 683 202 683 202 c 5
 642 128 579 12 413 0 c 0
 223 -14 150.59 45.4053 79 149 c 0
 -6 272 -2 465 125 620 c 0
 195 700 320 783 320 783 c 1
 252 882 l 1
 122 1072 156 1336 449 1332 c 0
 684 1329 702 1114 703 1057 c 1
 591 1037 l 1x78
412 121 m 0
 536 141 605 327 605 327 c 1
 376 677 l 1
 351 662 263 596 220 545 c 0
 154 467 115 331 182 221 c 0
 220 159 289 101 412 121 c 0
EndSplineSet
EndChar
StartChar: quotesingle
Encoding: 39 39 223
Width: 996
VWidth: 0
Flags: W
HStem: 999 332<439 559>
VStem: 439 120<999 1331>
LayerCount: 2
Back
Fore
SplineSet
439 1331 m 1
 559 1331 l 1
 559 999 l 1
 439 999 l 1
 439 1331 l 1
EndSplineSet
Validated: 1
EndChar
StartChar: parenleft
Encoding: 40 40 224
Width: 996
VWidth: 0
Flags: W
HStem: -160 112<605.549 711> 1365 113<598.503 708>
VStem: 195 132<376.863 944.188>
LayerCount: 2
Back
Fore
SplineSet
195 660 m 24
 194 1037 353 1459 708 1478 c 1
 708 1365 l 1
 495 1347 327 974 327 663 c 27
 327 348 498 -30 711 -48 c 1
 711 -160 l 1
 356 -141 196 282 195 660 c 24
EndSplineSet
Validated: 33
EndChar
StartChar: parenright
Encoding: 41 41 225
Width: 996
VWidth: 0
Flags: HW
HStem: -160 112<287 392.451> 1365 113<290 399.497>
VStem: 671 132<376.863 944.188>
LayerCount: 2
Back
Fore
SplineSet
803 660 m 24
 802 282 642 -141 287 -160 c 1
 287 -48 l 1
 500 -30 671 348 671 663 c 27
 671 974 503 1347 290 1365 c 1
 290 1478 l 1
 645 1459 804 1037 803 660 c 24
EndSplineSet
Validated: 33
EndChar
StartChar: asterisk
Encoding: 42 42 226
Width: 996
VWidth: 0
Flags: W
HStem: 940 413
VStem: 457 84<1198 1352>
LayerCount: 2
Back
Fore
SplineSet
547 1353 m 25
 541 1198 l 25
 694 1252 l 25
 721 1168 l 25
 562 1130 l 25
 655 995 l 25
 579 940 l 25
 499 1096 l 25
 419 940 l 25
 343 995 l 25
 436 1129 l 25
 277 1168 l 25
 304 1252 l 25
 457 1197 l 25
 451 1352 l 25
 547 1353 l 25
EndSplineSet
Validated: 1
EndChar
StartChar: plus
Encoding: 43 43 227
Width: 996
VWidth: 0
Flags: W
HStem: 402 136<138 431 567 860>
VStem: 431 136<109 402 538 831>
LayerCount: 2
Back
Fore
SplineSet
138 402 m 1
 138 538 l 1
 431 538 l 1
 431 831 l 1
 567 831 l 1
 567 538 l 1
 860 538 l 1
 860 402 l 1
 567 402 l 1
 567 109 l 1
 431 109 l 1
 431 402 l 1
 138 402 l 1
EndSplineSet
Validated: 1
EndChar
StartChar: comma
Encoding: 44 44 228
Width: 996
VWidth: 0
Flags: W
HStem: -162 391<437.103 484>
VStem: 361 279
LayerCount: 2
Back
Fore
SplineSet
440 229 m 29
 640 198 l 29
 484 -162 l 29
 361 -162 l 29
 440 229 l 29
EndSplineSet
Validated: 1
EndChar
StartChar: hyphen
Encoding: 45 45 229
Width: 996
VWidth: 0
Flags: W
HStem: 402 136<228 770>
VStem: 228 542<402 538>
LayerCount: 2
Back
Fore
SplineSet
228 538 m 5
 770 538 l 5
 770 402 l 5
 228 402 l 5
 228 538 l 5
EndSplineSet
Validated: 1
EndChar
StartChar: period
Encoding: 46 46 230
Width: 996
VWidth: 0
Flags: W
HStem: 0 251<405.634 592.366>
VStem: 376 246<28.5554 222.038>
LayerCount: 2
Back
Fore
SplineSet
622 125 m 4
 622 56 568 0 499 0 c 4
 430 0 376 56 376 125 c 4
 376 194 430 251 499 251 c 4
 568 251 622 194 622 125 c 4
EndSplineSet
Validated: 1
EndChar
StartChar: slash
Encoding: 47 47 231
Width: 996
VWidth: 0
Flags: W
HStem: 1312 20G<809.137 970>
LayerCount: 2
Back
Fore
SplineSet
27 -128 m 1
 820 1332 l 1
 970 1331 l 5
 177 -129 l 5
 27 -128 l 1
EndSplineSet
Validated: 1
EndChar
StartChar: zero
Encoding: 48 48 232
Width: 996
VWidth: 0
Flags: W
HStem: 0 131<366.124 631.03> 530 279<398.821 599.179> 1201 130<362.619 635.803>
VStem: 82 130<350.257 984.501> 361 276<565.575 772.065> 786 130<356.466 987.88>
CounterMasks: 1 1c
LayerCount: 2
Back
Fore
SplineSet
499 1331 m 0
 647 1331 763 1244 827 1121 c 0
 891 998 916 840 916 668 c 0
 916 496 889 333 822 210 c 0
 755 87 642 0 499 0 c 0
 356 0 241 87 174 210 c 0
 107 333 82 496 82 668 c 0
 82 840 108 998 172 1121 c 0
 236 1244 351 1331 499 1331 c 0
499 1201 m 0
 397 1201 336 1155 287 1060 c 0
 238 965 212 827 212 668 c 0
 212 509 238 366 289 271 c 0
 340 176 402 131 499 131 c 0
 596 131 656 176 707 271 c 0
 758 366 786 509 786 668 c 0
 786 827 761 965 712 1060 c 0
 663 1155 601 1201 499 1201 c 0
499 809 m 0
 576 809 637 745 637 668 c 0
 637 591 576 530 499 530 c 0
 422 530 361 591 361 668 c 0
 361 745 422 809 499 809 c 0
EndSplineSet
Validated: 1
EndChar
StartChar: one
Encoding: 49 49 233
Width: 996
VWidth: 0
Flags: W
HStem: 0 131<77 440 571 922> 1311 20G<383 570.017>
VStem: 440 131<131 1134>
LayerCount: 2
Back
Fore
SplineSet
428 1331 m 1
 570 1331 l 1
 571 131 l 1
 922 131 l 1
 922 0 l 1
 77 0 l 1
 77 131 l 1
 440 131 l 1
 442 1134 l 1
 350 1024 267 929 154 870 c 1
 95 986 l 1
 228 1055 338 1183 428 1331 c 1
EndSplineSet
Validated: 1
EndChar
StartChar: two
Encoding: 50 50 234
Width: 996
VWidth: 0
Flags: W
HStem: 0 131<261 922>
VStem: 102 128<1026.2 1100.42>
LayerCount: 2
Back
Fore
SplineSet
102 1029 m 1
 117 1106 164 1198 259 1262 c 0
 354 1326 512 1352 635 1316 c 0
 755 1280 865 1191 888 1060 c 0
 906 950 891 857 842 773 c 0
 793 689 715 610 602 492 c 0
 448 328 320 190 261 131 c 1
 922 131 l 1
 922 0 l 1
 77 0 l 1
 79 128 l 1
 79 128 363 427 509 581 c 0
 622 699 696 773 732 837 c 0
 768 901 770 970 760 1039 c 0
 750 1108 683 1164 596 1190 c 0
 509 1216 407 1208 335 1157 c 0
 266 1108 240 1055 230 1004 c 1
 102 1029 l 1
EndSplineSet
Validated: 33
EndChar
StartChar: three
Encoding: 51 51 235
Width: 996
VWidth: 0
Flags: HW
HStem: 0 131<313.851 662.426> 637 118<438 645.226>
VStem: 115 126<1038.04 1100.75>
LayerCount: 2
Back
Fore
SplineSet
625 1321 m 1
 748 1288 863 1198 886 1055 c 4
 909 922 863 809 776 742 c 4
 758 727 739 714 701 699 c 1
 768 684 863 594 891 492 c 0
 927 359 896 233 822 143 c 0
 748 53 632 0 507 0 c 0
 277 -3 151 115 100 223 c 1
 215 279 l 1
 238 233 310 128 507 131 c 0
 597 131 673 169 722 228 c 0
 771 287 791 361 765 456 c 0
 727 587 586 637 425 637 c 1
 438 755 l 1
 438 755 602 761 684 817 c 0
 738 858 773 937 758 1034 c 0
 743 1121 678 1173 591 1196 c 0
 469 1228 294 1194 241 1015 c 1
 115 1041 l 1
 175 1313 461 1363 625 1321 c 1
EndSplineSet
Validated: 33
EndChar
StartChar: four
Encoding: 52 52 236
Width: 996
VWidth: 0
Flags: W
HStem: 0 21G<635 763> 0 21G<635 763> 330 134<218 635 763 919> 1311 20G<618.192 763>
VStem: 635 128<0 330 464 1113>
LayerCount: 2
Back
Fore
SplineSet
632 1331 m 1xb8
 763 1331 l 1
 763 464 l 5
 919 464 l 5
 919 330 l 1
 763 330 l 1
 763 0 l 1
 635 0 l 1
 635 330 l 1
 79 330 l 1
 79 530 l 1
 632 1331 l 1xb8
635 1113 m 1
 220 502 l 1
 218 464 l 5
 635 464 l 5
 635 1113 l 1
EndSplineSet
Validated: 1
EndChar
StartChar: five
Encoding: 53 53 237
Width: 996
VWidth: 0
Flags: W
HStem: 1201 130<279 814>
VStem: 79 121<201.659 266.962> 788 131<263.058 641.851>
LayerCount: 2
Back
Fore
SplineSet
161 1331 m 1
 814 1331 l 1
 814 1201 l 1
 279 1201 l 1
 246 829 l 1
 325 867 440 906 571 886 c 0
 691 868 784 811 840 732 c 0
 896 653 919 543 919 443 c 0
 919 241 799 54 589 10 c 0
 489 -10 376 -10 279 28 c 0
 182 66 102 146 79 264 c 1
 200 289 l 1
 215 215 258 174 325 148 c 0
 392 122 484 118 563 136 c 0
 711 167 788 289 788 443 c 0
 788 522 771 604 735 655 c 0
 699 706 642 743 550 758 c 0
 386 773 287 735 192 617 c 1
 95 655 l 1
 161 1331 l 1
EndSplineSet
Validated: 33
EndChar
StartChar: six
Encoding: 54 54 238
Width: 996
VWidth: 0
Flags: HW
HStem: 0 125<346.077 651.532> 653 128<343.928 651.532> 1311 20G<382.5 553>
VStem: 776 133<246.458 531.75>
LayerCount: 2
Back
Fore
SplineSet
412 1331 m 1
 553 1331 l 1
 504 1208 389 914 328 755 c 0
 325 750 313 735 310 730 c 1
 364 758 435 781 499 781 c 0
 724 781 909 604 909 389 c 0
 909 174 724 0 499 0 c 0
 310.195 4.49536 88.2483 137.515 88.2483 389.612 c 0
 88.2483 417.912 91.0452 447.712 97 479 c 0
 117 597 141 637 205 801 c 0
 259 944 353 1183 412 1331 c 1
499 653 m 0
 345 653 220 535 220 389 c 0
 220 243 345 125 499 125 c 0
 653 125 776 243 776 389 c 0
 776 535 653 653 499 653 c 0
EndSplineSet
Validated: 1
EndChar
StartChar: seven
Encoding: 55 55 239
Width: 996
VWidth: 0
Flags: W
HStem: 0 21G<118 275.031> 0 21G<118 275.031> 1201 130<77 778>
LayerCount: 2
Back
Fore
SplineSet
77 1331 m 5xa0
 922 1331 l 5
 922 1193 l 5
 264 0 l 5
 118 0 l 5
 778 1201 l 5
 77 1201 l 5
 77 1331 l 5xa0
EndSplineSet
Validated: 1
EndChar
StartChar: eight
Encoding: 56 56 240
Width: 996
VWidth: 0
Flags: W
HStem: 0 125<338.616 659.803> 666 112<378.08 619.408> 1201 130<373.54 624.652>
VStem: 87 133<237.643 542.801> 161 131<861.362 1118.65> 707 130<862.913 1121.61> 778 133<237.77 538.416>
LayerCount: 2
Back
Fore
SplineSet
499 1331 m 0xe8
 683 1331 837 1175 837 991 c 0xec
 837 883 786 791 709 730 c 1
 829 661 911 532 911 389 c 0
 911 174 724 0 499 0 c 0
 274 0 87 174 87 389 c 0xf2
 87 532 169 661 289 730 c 1
 212 791 161 885 161 993 c 0
 161 1177 315 1331 499 1331 c 0xe8
499 1201 m 0
 384 1201 292 1108 292 993 c 0
 292 878 384 778 499 778 c 0
 614 778 707 878 707 993 c 0
 707 1108 614 1201 499 1201 c 0
499 666 m 0
 345 666 220 555 220 389 c 0
 220 223 345 125 499 125 c 0
 653 125 781 223 778 389 c 0xf2
 775 555 653 666 499 666 c 0
EndSplineSet
Validated: 33
EndChar
StartChar: nine
Encoding: 57 57 241
Width: 996
VWidth: 0
Flags: HW
HStem: 0 21G<453 623.5> 0 21G<453 623.5> 550 128<354.468 662.072> 1206 125<354.468 659.923>
VStem: 97 133<799.25 1084.54>
LayerCount: 2
Back
Fore
SplineSet
594 0 m 1xb8
 453 0 l 1
 502 123 617 417 678 576 c 0
 681 581 693 597 696 602 c 1
 642 574 571 550 507 550 c 0
 282 550 97 727 97 942 c 0
 97 1157 282 1331 507 1331 c 0
 696 1327 918 1193 918 941 c 0
 918 913 915 883 909 852 c 0
 889 734 865 694 801 530 c 0
 747 387 653 148 594 0 c 1xb8
507 678 m 0
 661 678 786 796 786 942 c 0
 786 1088 661 1206 507 1206 c 0
 353 1206 230 1088 230 942 c 0
 230 796 353 678 507 678 c 0
EndSplineSet
Validated: 1
EndChar
StartChar: colon
Encoding: 58 58 242
Width: 996
VWidth: 0
Flags: W
HStem: 0 251<195.634 382.366> 748 250<195.634 382.366>
VStem: 166 246<28.5554 222.038 776.555 969.445>
LayerCount: 2
Back
Fore
SplineSet
412 873 m 0
 412 804 358 748 289 748 c 0
 220 748 166 804 166 873 c 0
 166 942 220 998 289 998 c 0
 358 998 412 942 412 873 c 0
412 125 m 0
 412 56 358 0 289 0 c 0
 220 0 166 56 166 125 c 0
 166 194 220 251 289 251 c 0
 358 251 412 194 412 125 c 0
EndSplineSet
Validated: 1
EndChar
StartChar: semicolon
Encoding: 59 59 243
Width: 996
VWidth: 0
Flags: W
HStem: 748 250<144.634 331.366>
VStem: 115 246<776.555 969.445>
LayerCount: 2
Back
Fore
SplineSet
146 243 m 25
 346 212 l 25
 189 -148 l 25
 67 -148 l 25
 146 243 l 25
361 873 m 0
 361 804 307 748 238 748 c 0
 169 748 115 804 115 873 c 0
 115 942 169 998 238 998 c 0
 307 998 361 942 361 873 c 0
EndSplineSet
Validated: 1
EndChar
StartChar: less
Encoding: 60 60 244
Width: 996
VWidth: 0
Flags: W
HStem: 0 21G<743.794 786.143> 0 21G<743.794 786.143> 978 20G<743.726 786.143>
LayerCount: 2
Back
Fore
SplineSet
148 428 m 1xa0
 148 571 l 1
 773 998 l 1
 842 893 l 1
 279 512 l 1
 279 497 l 1
 842 105 l 1
 773 0 l 1
 148 428 l 1xa0
EndSplineSet
Validated: 1
EndChar
StartChar: equal
Encoding: 61 61 245
Width: 996
VWidth: 0
Flags: W
HStem: 236 135<138 860> 604 136<138 860>
LayerCount: 2
Back
Fore
SplineSet
138 371 m 1
 860 371 l 1
 860 236 l 1
 138 236 l 1
 138 371 l 1
138 740 m 5
 860 740 l 5
 860 604 l 5
 138 604 l 5
 138 740 l 5
EndSplineSet
Validated: 1
EndChar
StartChar: greater
Encoding: 62 62 246
Width: 996
VWidth: 0
Flags: W
HStem: 0 21G<211.857 254.206> 0 21G<211.857 254.206> 978 20G<211.857 254.274>
LayerCount: 2
Back
Fore
SplineSet
850 428 m 1xa0
 225 0 l 1
 156 105 l 1
 719 497 l 1
 719 512 l 1
 156 893 l 1
 225 998 l 1
 850 571 l 1
 850 428 l 1xa0
EndSplineSet
Validated: 1
EndChar
StartChar: question
Encoding: 63 63 247
Width: 996
VWidth: 0
Flags: W
HStem: 0 251<313.634 500.366>
VStem: 72 117<996 1136.07> 284 246<28.5554 222.038> 338 136<453 602.272>
LayerCount: 2
Back
Fore
SplineSet
530 125 m 0xe0
 530 56 476 0 407 0 c 0
 338 0 284 56 284 125 c 0
 284 194 338 251 407 251 c 0
 476 251 530 194 530 125 c 0xe0
338 453 m 1xd0
 338 453 325 594 433 707 c 0
 546 825 584 832 622 893 c 0
 660 954 660 991 660 1047 c 0
 657 1119 596 1170 509 1196 c 0
 422 1222 331 1211 259 1160 c 0
 190 1111 189 1040 189 996 c 1
 72 968 l 1
 41 1050 87 1196 182 1260 c 0
 277 1324 425 1352 548 1316 c 0
 668 1280 763 1209 791 1078 c 0
 811 978 789 908 735 829 c 0
 679 747 635 734 527 614 c 0
 483 565 482 502 474 451 c 1
 338 453 l 1xd0
EndSplineSet
Validated: 33
EndChar
StartChar: at
Encoding: 64 64 2
Width: 996
VWidth: 0
Flags: W
HStem: 0 118<375.402 843.301> 276 128<532.445 771.59> 741 125<531.943 814> 1117 131<383.005 716.863>
VStem: 54 128<348.307 887.603> 814 131<445.283 743 866 1023.38>
LayerCount: 2
Back
Fore
SplineSet
558 1248 m 4
 691 1249 834 1170 883 1086 c 4
 924 1017 945 961 945 861 c 0
 945 761 945 686 945 576 c 1
 945 315 734 276 663 276 c 0
 520 276 422 354 381 438 c 0
 340 522 348 618 369 677 c 0
 453 915 669 866 814 866 c 1
 814 963 791 986 771 1022 c 0
 745 1066 663 1117 558 1117 c 0
 210 1117 182 771 182 605 c 0
 182 323 312 118 535 118 c 0
 645 118 694 131 850 154 c 1
 850 36 l 1
 717 16 681 0 530 0 c 0
 192 0 54 295 54 633 c 0
 54 966 212 1244 558 1248 c 4
814 743 m 1
 717 743 729 744 655 741 c 0
 587 739 508 706 489 628 c 0
 484 607 480 535 502 489 c 0
 518 455 558 405 666 404 c 0
 853 401 814 637 814 743 c 1
EndSplineSet
Validated: 33
EndChar
StartChar: A
Encoding: 65 65 27
Width: 996
VWidth: 0
Flags: W
HStem: 0 21G<82 220.097 777.903 916> 0 21G<82 220.097 777.903 916> 361 131<340 658> 1311 20G<411.966 586.034>
LayerCount: 2
Back
Fore
SplineSet
417 1331 m 5xb0
 581 1331 l 5
 916 0 l 1
 783 0 l 1
 691 361 l 1
 307 361 l 1
 215 0 l 1
 82 0 l 1
 417 1331 l 5xb0
499 1134 m 1
 497 1119 l 1
 340 492 l 1
 658 492 l 1
 502 1116 l 1
 499 1134 l 1
EndSplineSet
Validated: 1
EndChar
StartChar: B
Encoding: 66 66 28
Width: 996
VWidth: 0
Flags: W
HStem: 0 128<205 704.163> 617 136<207 652.636> 1203 128<207 639.147>
VStem: 77 128<128 617 753 1203> 724 128<824.916 1119.97> 794 128<216.126 520.375>
LayerCount: 2
Back
Fore
SplineSet
77 1331 m 1xf4
 77 1331 345 1334 481 1331 c 0
 604 1331 699 1291 763 1224 c 0
 827 1157 852 1070 852 986 c 0xf8
 852 871 822 776 753 712 c 0
 743 702 732 699 727 696 c 1
 732 693 743 694 753 689 c 0
 773 676 791 663 809 648 c 0
 881 581 922 487 922 374 c 0
 922 264 889 167 822 100 c 0
 755 33 656 0 543 0 c 0
 77 0 l 1
 77 1331 l 1xf4
207 1203 m 1
 207 753 l 1
 481 753 l 2
 568 753 625 770 663 806 c 0
 701 842 724 896 724 986 c 0
 724 1042 704 1096 668 1134 c 0
 632 1172 576 1203 481 1203 c 2
 207 1203 l 1
205 617 m 1
 205 128 l 1
 543 128 l 2
 630 128 692 154 730 192 c 0
 768 230 794 290 794 374 c 0xf4
 794 456 768 509 724 550 c 0
 680 591 612 617 522 617 c 2
 205 617 l 1
EndSplineSet
Validated: 33
EndChar
StartChar: C
Encoding: 67 67 29
Width: 996
VWidth: 0
Flags: W
HStem: 10 131<396.539 671.698> 1208 131<383.219 676.469>
VStem: 82 130<390.666 991.991> 796 115<1023.14 1089.51>
LayerCount: 2
Back
Fore
SplineSet
525 1339 m 4
 599 1339 676 1324 748 1275 c 4
 820 1226 875 1145 911 1027 c 5
 796 996 l 5
 768 1093 717 1136 673 1167 c 4
 629 1198 581 1208 525 1208 c 4
 420 1208 328 1154 259 998 c 4
 228 929 212 811 212 691 c 4
 212 571 233 448 261 376 c 4
 322 220 410 141 543 141 c 4
 666 141 773 256 788 366 c 5
 916 348 l 5
 890 174 740 10 543 10 c 4
 354 10 215 144 141 328 c 4
 103 425 82 558 82 689 c 4
 82 820 95 952 141 1052 c 4
 225 1239 369 1339 525 1339 c 4
EndSplineSet
Validated: 1
EndChar
StartChar: D
Encoding: 68 68 30
Width: 996
VWidth: 0
Flags: HW
HStem: 0 128<212 544.886> 1201 130<215 561.062>
VStem: 84 128<128 1201> 786 128<383.072 959.299>
LayerCount: 2
Back
Fore
SplineSet
207 1331 m 2
 312 1331 400 1333 502 1313 c 1
 607 1287 714 1234 791 1132 c 0
 868 1030 914 886 914 689 c 0
 914 494 880 338 806 225 c 0
 732 112 619.166 51.2641 484 15 c 0
 402 -7 302 0 195 0 c 1
 84 0 l 1
 84 1331 l 1
 207 1331 l 2
471 1188 m 0
 389 1208 294 1204 215 1201 c 1
 213 128 l 1
 249 125 369 121 453 141 c 0
 566 169 645 215 699 297 c 0
 753 379 786 507 786 689 c 0
 786 868 745 981 689 1055 c 0
 633 1129 555 1168 471 1188 c 0
EndSplineSet
EndChar
StartChar: E
Encoding: 69 69 31
Width: 996
VWidth: 0
Flags: W
HStem: 0 131<243 897> 614 131<243 775> 1203 128<243 900>
VStem: 113 130<131 614 745 1203>
LayerCount: 2
Back
Fore
SplineSet
113 1331 m 5
 900 1331 l 1
 900 1203 l 1
 243 1203 l 1
 243 745 l 1
 775 745 l 1
 775 614 l 1
 243 614 l 1
 243 131 l 1
 897 131 l 1
 897 0 l 1
 113 0 l 1
 113 1331 l 5
EndSplineSet
Validated: 1
EndChar
StartChar: F
Encoding: 70 70 32
Width: 996
VWidth: 0
Flags: W
HStem: 0 21G<113 243> 0 21G<113 243> 614 131<243 775> 1203 128<243 900>
VStem: 113 130<0 614 745 1203>
LayerCount: 2
Back
Fore
SplineSet
113 0 m 1xb8
 113 1331 l 1
 900 1331 l 1
 900 1203 l 1
 243 1203 l 1
 243 745 l 1
 775 745 l 1
 775 614 l 1
 243 614 l 1
 243 0 l 1
 113 0 l 1xb8
EndSplineSet
Validated: 1
EndChar
StartChar: G
Encoding: 71 71 33
Width: 996
VWidth: 0
Flags: W
HStem: 0 131<396.539 672.741> 545 131<474 786> 1201 130<383.928 679.257>
VStem: 82 130<380.343 980.178> 786 130<242.488 545 1015.3 1097.29> 812 104<3 126.648>
LayerCount: 2
Back
Fore
SplineSet
525 1331 m 0xf4
 712 1328 855 1224 914 1019 c 1
 796 988 l 1
 760 1113 671 1201 525 1201 c 0
 420 1201 330 1147 261 991 c 0
 230 922 212 804 212 684 c 0
 212 564 233 438 261 366 c 0
 322 210 410 131 543 131 c 0
 658 131 760 233 786 335 c 1
 786 545 l 1xf8
 474 545 l 1
 474 676 l 1
 916 676 l 1
 916 3 l 1
 812 3 l 1
 796 141 l 1
 755 72 661 0 543 0 c 0
 354 0 215 133 141 317 c 0
 103 414 82 550 82 681 c 0
 82 812 97 944 143 1044 c 0
 227 1231 369 1331 525 1331 c 0xf4
EndSplineSet
Validated: 1
EndChar
StartChar: H
Encoding: 72 72 34
Width: 996
VWidth: 0
Flags: W
HStem: 0 21G<79 210 788 919> 0 21G<79 210 788 919> 607 130<210 788> 1311 20G<79 210 788 919>
VStem: 79 131<0 607 737 1331> 788 131<0 607 737 1331>
LayerCount: 2
Back
Fore
SplineSet
79 1331 m 5xbc
 210 1331 l 5
 210 737 l 1
 788 737 l 1
 788 1331 l 5
 919 1331 l 5
 919 0 l 1
 788 0 l 1
 788 607 l 1
 210 607 l 1
 210 0 l 1
 79 0 l 1
 79 1331 l 5xbc
EndSplineSet
Validated: 1
EndChar
StartChar: I
Encoding: 73 73 35
Width: 996
VWidth: 0
Flags: W
HStem: 0 131<87 435 563 911> 1201 130<87 435 563 911>
VStem: 435 128<131 1201>
LayerCount: 2
Back
Fore
SplineSet
87 1331 m 1
 911 1331 l 5
 911 1201 l 5
 563 1201 l 1
 563 131 l 1
 911 131 l 5
 911 0 l 5
 87 0 l 1
 87 131 l 1
 435 131 l 1
 435 1201 l 1
 87 1201 l 1
 87 1331 l 1
EndSplineSet
Validated: 1
EndChar
StartChar: J
Encoding: 74 74 36
Width: 996
VWidth: 0
Flags: W
HStem: 0 128<329.898 644.979> 1203 131<233 791>
VStem: 79 128<251.074 371> 791 128<294.982 1203>
LayerCount: 2
Back
Fore
SplineSet
233 1334 m 1
 919 1334 l 1
 919 1331 l 1
 919 1331 919 796 919 532 c 0
 919 345 870 207 783 120 c 0
 696 33 581 0 466 0 c 0
 346 0 246 59 179 131 c 0
 112 203 79 289 79 371 c 1
 207 371 l 1
 207 330 230 267 276 218 c 0
 322 169 384 128 466 128 c 0
 556 128 635 151 691 210 c 0
 747 269 791 366 791 532 c 0
 791 829 791 1095 791 1203 c 1
 233 1203 l 1
 233 1334 l 1
EndSplineSet
Validated: 1
EndChar
StartChar: K
Encoding: 75 75 37
Width: 996
VWidth: 0
Flags: W
HStem: 0 21G<72 202 770.412 927> 0 21G<72 202 770.412 927> 1311 20G<72 202 748.139 924>
VStem: 72 130<0 358 576 1331>
LayerCount: 2
Back
Fore
SplineSet
72 1331 m 1xb0
 202 1331 l 1
 202 576 l 1
 763 1331 l 1
 924 1331 l 1
 512 776 l 1
 927 0 l 1
 781 0 l 1
 430 663 l 1
 202 358 l 1
 202 0 l 1
 72 0 l 1
 72 1331 l 1xb0
EndSplineSet
Validated: 1
EndChar
StartChar: L
Encoding: 76 76 38
Width: 996
VWidth: 0
Flags: W
HStem: 0 131<281 924> 1311 20G<150 281>
VStem: 150 131<131 1331>
LayerCount: 2
Back
Fore
SplineSet
150 1331 m 5
 281 1331 l 5
 281 131 l 5
 924 131 l 5
 924 0 l 5
 150 0 l 5
 150 1331 l 5
EndSplineSet
Validated: 1
EndChar
StartChar: M
Encoding: 77 77 39
Width: 996
VWidth: 0
Flags: W
HStem: 0 21G<72 200> 0 21G<72 200> 1311 20G<72 204.758 794.242 927>
VStem: 72 128<0 1037> 799 128<-5 1042>
LayerCount: 2
Back
Fore
SplineSet
804 1331 m 1xb8
 927 1331 l 1
 927 -5 l 1
 799 -5 l 1
 799 1042 l 1
 499 399 l 1
 200 1037 l 1
 200 0 l 1
 72 0 l 1
 72 1331 l 1
 195 1331 l 1
 497 712 l 1
 499 696 l 1
 502 712 l 1
 804 1331 l 1xb8
EndSplineSet
Validated: 1
EndChar
StartChar: N
Encoding: 78 78 40
Width: 996
VWidth: 0
Flags: W
HStem: 0 21G<79 210 785.026 919> 0 21G<79 210 785.026 919> 1311 20G<79 212.984 788 919>
VStem: 79 131<0 1068> 788 131<264 1331>
LayerCount: 2
Back
Fore
SplineSet
202 1331 m 1xb8
 788 264 l 1
 788 1331 l 1
 919 1331 l 1
 919 0 l 1
 796 0 l 1
 210 1068 l 1
 210 0 l 1
 79 0 l 1
 79 1331 l 1
 202 1331 l 1xb8
EndSplineSet
Validated: 1
EndChar
StartChar: O
Encoding: 79 79 41
Width: 996
VWidth: 0
Flags: W
HStem: 3 130<366.124 631.623> 1203 128<364.153 634.258>
VStem: 82 130<352.017 984.501> 786 130<352.017 987.88>
LayerCount: 2
Back
Fore
SplineSet
499 1331 m 0
 647 1331 763 1244 827 1121 c 0
 891 998 916 840 916 668 c 0
 916 494 889 335 822 212 c 0
 755 89 642 3 499 3 c 0
 356 3 241 89 174 212 c 0
 107 335 82 494 82 668 c 0
 82 840 108 998 172 1121 c 0
 236 1244 351 1331 499 1331 c 0
499 1203 m 0
 397 1203 336 1155 287 1060 c 0
 238 965 212 827 212 668 c 0
 212 509 238 369 289 274 c 0
 340 179 402 133 499 133 c 0
 596 133 658 179 709 274 c 0
 760 369 786 509 786 668 c 0
 786 827 761 965 712 1060 c 0
 663 1155 601 1203 499 1203 c 0
EndSplineSet
Validated: 1
EndChar
StartChar: P
Encoding: 80 80 42
Width: 996
VWidth: 0
Flags: W
HStem: 0 21G<87 218> 0 21G<87 218> 571 130<218 699.056> 1198 133<218 694.083>
VStem: 87 131<0 571 701 1198> 781 130<780.97 1108.47>
LayerCount: 2
Back
Fore
SplineSet
87 1331 m 1xbc
 87 1331 387 1331 538 1331 c 0
 661 1331 761 1283 822 1211 c 0
 883 1139 911 1050 911 960 c 0
 911 837 879 737 812 668 c 0
 745 599 646 571 538 571 c 2
 218 571 l 1
 218 0 l 1
 87 0 l 1
 87 1331 l 1xbc
218 1198 m 1
 218 701 l 1
 538 701 l 2
 625 701 681 722 719 760 c 0
 757 798 781 860 781 960 c 0
 781 1024 762 1082 724 1126 c 0
 686 1170 630 1198 538 1198 c 2
 218 1198 l 1
EndSplineSet
Validated: 1
EndChar
StartChar: Q
Encoding: 81 81 43
Width: 996
VWidth: 0
Flags: W
HStem: 0 128<361.77 632.849> 1201 130<362.619 635.803>
VStem: 82 130<342.37 984.089> 786 131<0 126.879 350.076 987.11>
LayerCount: 2
Back
Fore
SplineSet
499 1331 m 0
 647 1331 763 1244 827 1121 c 0
 891 998 917 835 917 663 c 0
 917 494 883 342 829 226 c 5
 897 145 905 50 905 0 c 1
 792 0 l 1
 792 23 786 84 754 129 c 1
 712 87 l 0
 658 38 599 0 494 0 c 0
 389 0 266 56 187 192 c 0
 108 328 82 492 82 666 c 0
 82 838 108 998 172 1121 c 0
 236 1244 351 1331 499 1331 c 0
732 318 m 1
 763 408 786 541 786 666 c 0
 786 825 761 965 712 1060 c 0
 663 1155 601 1201 499 1201 c 0
 397 1201 336 1155 287 1060 c 0
 238 965 212 825 212 666 c 0
 212 507 236 364 287 269 c 0
 338 174 400 128 497 128 c 0
 571 128 634 160 678 216 c 1
 542 349 l 1
 607 428 l 1
 732 318 l 1
EndSplineSet
Validated: 1
EndChar
StartChar: R
Encoding: 82 82 44
Width: 996
VWidth: 0
Flags: W
HStem: 573 131<212 563> 1203 128<212 689.688>
VStem: 82 130<3 573 704 1203> 778 131<787.867 1113.17>
LayerCount: 2
Back
Fore
SplineSet
251 1331 m 0
 346 1331 458 1331 535 1331 c 0
 658 1331 758 1288 819 1216 c 0
 880 1144 909 1053 909 963 c 0
 909 840 873 742 806 673 c 0
 773 640 738 617 694 602 c 1
 916 3 l 1
 778 3 l 1
 563 573 l 1
 212 573 l 1
 212 3 l 1
 82 3 l 1
 82 1331 l 1
 82 1331 156 1331 251 1331 c 0
212 1203 m 1
 212 704 l 1
 535 704 l 2
 622 704 676 725 714 763 c 0
 752 801 778 863 778 963 c 0
 778 1027 760 1085 722 1129 c 0
 684 1173 627 1203 535 1203 c 2
 212 1203 l 1
EndSplineSet
Validated: 1
EndChar
StartChar: S
Encoding: 83 83 45
Width: 996
VWidth: 0
Flags: W
HStem: 0 131<313.434 681.422> 1201 128<333.933 674.124>
VStem: 108 130<868.141 1109.38>
LayerCount: 2
Back
Fore
SplineSet
509 1329 m 0
 762 1329 883 1129 883 1129 c 1
 771 1065 l 1
 771 1065 696 1201 509 1201 c 0
 412 1201 346 1173 302 1132 c 0
 258 1091 238 1039 238 970 c 0
 238 909 269 871 323 835 c 0
 377 799 451 771 515 745 c 0
 571 722 658 694 737 650 c 0
 816 606 894 536 909 428 c 0
 922 331 902 225 835 141 c 0
 768 57 655 0 507 0 c 0
 359 0 251 51 184 105 c 0
 117 159 84 218 84 218 c 1
 200 276 l 1
 200 276 215 245 264 207 c 0
 313 169 387 131 507 131 c 0
 625 131 691 169 732 220 c 0
 773 271 791 343 781 410 c 0
 773 466 734 502 673 538 c 0
 612 574 533 597 466 625 c 0
 405 651 320 679 248 730 c 0
 176 781 111 860 108 968 c 0
 105 1068 143 1159 215 1226 c 0
 287 1293 386 1329 509 1329 c 0
EndSplineSet
Validated: 33
EndChar
StartChar: T
Encoding: 84 84 46
Width: 996
VWidth: 0
Flags: W
HStem: 0 21G<435 563> 0 21G<435 563> 1198 133<77 435 563 922>
VStem: 435 128<0 1198>
LayerCount: 2
Back
Fore
SplineSet
77 1331 m 5xb0
 922 1331 l 5
 922 1198 l 1
 563 1198 l 1
 563 0 l 1
 435 0 l 1
 435 1198 l 1
 77 1198 l 1
 77 1331 l 5xb0
EndSplineSet
Validated: 1
EndChar
StartChar: U
Encoding: 85 85 47
Width: 996
VWidth: 0
Flags: W
HStem: 0 131<339.058 659.316> 1311 20G<82 212 786 916>
VStem: 82 130<291.334 1331> 786 130<285.305 1331>
LayerCount: 2
Back
Fore
SplineSet
82 1331 m 1
 212 1331 l 1
 212 568 l 2
 212 409 241 297 287 230 c 0
 333 163 394 131 499 131 c 0
 604 131 666 163 712 230 c 0
 758 297 786 409 786 568 c 2
 786 1331 l 1
 916 1331 l 1
 916 568 l 2
 916 394 888 258 819 156 c 0
 750 54 635 0 499 0 c 0
 363 0 248 54 179 156 c 0
 110 258 82 394 82 568 c 2
 82 1331 l 1
EndSplineSet
Validated: 1
EndChar
StartChar: V
Encoding: 86 86 48
Width: 996
VWidth: 0
Flags: W
HStem: 0 21G<411.996 586.004> 0 21G<411.996 586.004> 1311 20G<84 222.886 776.114 914>
LayerCount: 2
Back
Fore
SplineSet
84 1331 m 1xa0
 218 1331 l 1
 497 189 l 1
 499 169 l 1
 502 189 l 1
 781 1331 l 5
 914 1331 l 5
 581 0 l 1
 417 0 l 1
 84 1331 l 1xa0
EndSplineSet
Validated: 1
EndChar
StartChar: W
Encoding: 87 87 49
Width: 996
VWidth: 0
Flags: W
HStem: 0 21G<164.738 329.021 669.944 833.262> 0 21G<164.738 329.021 669.944 833.262> 1311 20G<82 213.286 784.714 916>
LayerCount: 2
Back
Fore
SplineSet
82 1331 m 1xa0
 212 1331 l 1
 279 289 l 1
 430 776 l 1
 499 1014 l 1
 568 778 l 1
 719 289 l 1
 786 1331 l 1
 916 1331 l 1
 832 0 l 1
 676 0 l 1
 504 568 l 1
 499 607 l 1
 494 568 l 1
 323 0 l 1
 166 0 l 1
 82 1331 l 1xa0
EndSplineSet
Validated: 1
EndChar
StartChar: X
Encoding: 88 88 50
Width: 996
VWidth: 0
Flags: W
HStem: 0 21G<87 242.708 755.292 911> 0 21G<87 242.708 755.292 911> 1311 20G<92 247.613 750.387 906>
LayerCount: 2
Back
Fore
SplineSet
92 1331 m 5xa0
 238 1331 l 5
 499 788 l 1
 760 1331 l 1
 906 1331 l 1
 573 668 l 1
 911 0 l 1
 765 0 l 1
 499 548 l 1
 233 0 l 1
 87 0 l 1
 428 668 l 1
 92 1331 l 5xa0
EndSplineSet
Validated: 1
EndChar
StartChar: Y
Encoding: 89 89 51
Width: 996
VWidth: 0
Flags: W
HStem: 0 21G<435 563> 0 21G<435 563>
VStem: 435 128<0 589>
LayerCount: 2
Back
Fore
SplineSet
90 1334 m 1xa0
 230 1334 l 1
 499 732 l 1
 765 1334 l 1
 909 1334 l 1
 563 589 l 1
 563 0 l 1
 435 0 l 1
 435 589 l 1
 90 1334 l 1xa0
EndSplineSet
Validated: 1
EndChar
StartChar: Z
Encoding: 90 90 52
Width: 996
VWidth: 0
Flags: W
HStem: 0 131<233 922> 1198 133<95 753>
LayerCount: 2
Back
Fore
SplineSet
95 1331 m 1
 901 1331 l 1
 901 1193 l 1
 233 131 l 1
 922 131 l 1
 922 0 l 1
 77 0 l 1
 77 128 l 1
 753 1198 l 1
 95 1198 l 1
 95 1331 l 1
EndSplineSet
Validated: 1
EndChar
StartChar: bracketleft
Encoding: 91 91 53
Width: 996
VWidth: 0
Flags: W
HStem: -162 131<356 704> 1367 133<356 706>
VStem: 225 131<-31 1367>
LayerCount: 2
Back
Fore
SplineSet
225 1500 m 1
 706 1500 l 1
 706 1367 l 1
 356 1367 l 1
 356 -31 l 1
 704 -31 l 1
 704 -162 l 1
 225 -162 l 1
 225 1500 l 1
EndSplineSet
Validated: 1
EndChar
StartChar: backslash
Encoding: 92 92 54
Width: 996
VWidth: 0
Flags: W
HStem: 1311 20G<54 215.87>
LayerCount: 2
Back
Fore
SplineSet
998 -128 m 1
 847 -128 l 1
 54 1331 l 1
 205 1331 l 1
 998 -128 l 1
EndSplineSet
Validated: 1
EndChar
StartChar: bracketright
Encoding: 93 93 55
Width: 996
VWidth: 0
Flags: W
HStem: -162 131<294 642> 1367 133<292 642>
VStem: 642 131<-31 1367>
LayerCount: 2
Back
Fore
SplineSet
773 1500 m 1
 773 -162 l 1
 294 -162 l 1
 294 -31 l 1
 642 -31 l 1
 642 1367 l 1
 292 1367 l 1
 292 1500 l 1
 773 1500 l 1
EndSplineSet
Validated: 1
EndChar
StartChar: asciicircum
Encoding: 94 94 56
Width: 996
VWidth: 0
Flags: W
HStem: 1083 249
VStem: 145 675
LayerCount: 2
Back
Fore
SplineSet
298 1083 m 5
 145 1083 l 5
 395 1332 l 5
 570 1332 l 5
 820 1083 l 5
 667 1083 l 5
 483 1235 l 5
 298 1083 l 5
EndSplineSet
Validated: 1
EndChar
StartChar: underscore
Encoding: 95 95 57
Width: 996
VWidth: 0
Flags: W
HStem: -208 131<100 898>
LayerCount: 2
Back
Fore
SplineSet
898 -208 m 5
 100 -208 l 5
 100 -77 l 5
 898 -77 l 5
 898 -208 l 5
EndSplineSet
Validated: 1
EndChar
StartChar: grave
Encoding: 96 96 58
Width: 996
VWidth: 0
Flags: W
HStem: 1083 249
VStem: 238 375
LayerCount: 2
Back
Fore
SplineSet
613 1083 m 9
 460 1083 l 25
 238 1266 l 25
 363 1332 l 25
 613 1083 l 9
EndSplineSet
Validated: 1
EndChar
StartChar: a
Encoding: 97 97 0
Width: 996
VWidth: 0
Flags: W
HStem: 0 128<286.244 617.175> 448 133<273.654 663> 868 130<324.05 625.744>
VStem: 141 120<717 805.21> 663 131<175.344 448 579 831.009>
LayerCount: 2
Back
Fore
SplineSet
205 891 m 0
 256 952 348 998 481 998 c 0
 614 998 709 947 758 863 c 0
 799 794 794 673 794 573 c 0
 794 473 794 384 794 274 c 1
 794 274 791 202 804 174 c 0
 817 146 831 120 896 110 c 1
 896 -3 l 1
 760 5 714 87 714 87 c 1
 709 87 l 1
 709 87 614 0 417 0 c 0
 274 0 177 77 136 161 c 0
 95 245 100 322 120 381 c 0
 161 496 256 555 353 573 c 0
 404 581 455 581 509 581 c 0
 558 581 612 579 663 579 c 1
 663 676 665 763 645 799 c 0
 619 843 586 868 481 868 c 0
 376 868 333 837 305 806 c 0
 277 775 266 732 261 696 c 1
 141 717 l 1
 141 758 154 830 205 891 c 0
625 179 m 0
 653 202 660 228 663 238 c 0
 666 248 663 448 663 448 c 1
 566 448 471 458 374 445 c 1
 300 432 260 416 241 338 c 0
 236 317 234 258 256 212 c 0
 272 178 312 131 420 128 c 0
 533 125 594 151 625 179 c 0
EndSplineSet
Validated: 33
EndChar
StartChar: b
Encoding: 98 98 1
Width: 996
VWidth: 0
Flags: W
HStem: 0 131<351.383 645.712> 868 130<351.383 645.052> 1311 20G<92 220>
VStem: 92 128<295.679 702.321 881 1331> 92 103<0 67.6659> 773 133<285.2 712.8>
LayerCount: 2
Back
Fore
SplineSet
92 1331 m 5xf4
 220 1331 l 5
 220 881 l 1
 284 950 379 998 497 998 c 0
 640 998 753 921 814 824 c 0
 875 727 906 607 906 499 c 0
 906 391 875 271 814 174 c 0
 753 77 643 0 497 0 c 0
 379 0 284 49 220 118 c 1xf4
 195 0 l 1
 92 0 l 1xec
 92 499 l 1
 92 1331 l 5xf4
497 868 m 0
 392 868 336 824 292 755 c 0
 248 686 220 589 220 499 c 0
 220 409 248 312 292 243 c 0
 336 174 392 131 497 131 c 0
 602 131 663 174 707 243 c 0
 751 312 773 409 773 499 c 0
 773 589 751 686 707 755 c 0
 663 824 602 868 497 868 c 0
EndSplineSet
Validated: 1
EndChar
StartChar: c
Encoding: 99 99 3
Width: 996
VWidth: 0
Flags: W
HStem: 0 131<383.619 672.924> 868 130<365.605 651.85>
VStem: 128 128<285.2 735.921> 742 128<200.881 294.24 674.961 773.732>
LayerCount: 2
Back
Fore
SplineSet
507 998 m 0
 609 998 697 963 758 904 c 0
 819 845 852 763 860 676 c 1
 732 666 l 1
 727 727 702 779 666 812 c 0
 630 845 581 868 507 868 c 0
 402 868 353 827 312 758 c 0
 271 689 256 591 256 499 c 0
 256 409 279 312 323 243 c 0
 367 174 427 131 532 131 c 0
 604 131 648 151 681 182 c 0
 714 213 734 258 742 312 c 1
 870 292 l 1
 857 218 824 144 768 90 c 0
 712 36 629 0 532 0 c 0
 386 0 276 77 215 174 c 0
 154 271 128 391 128 499 c 0
 128 607 144 727 200 824 c 0
 256 921 364 998 507 998 c 0
EndSplineSet
Validated: 1
EndChar
StartChar: d
Encoding: 100 100 4
Width: 996
VWidth: 0
Flags: W
HStem: 0 131<350.288 645.609> 868 130<351.94 645.609> 1311 20G<776 904>
VStem: 95 130<280.822 712.8> 776 128<288.219 709.781 881 1331> 799 105<0 73.5499>
LayerCount: 2
Back
Fore
SplineSet
776 1331 m 1xf8
 904 1331 l 1xf8
 904 0 l 1
 799 0 l 1xf4
 776 118 l 1
 712 49 617 0 499 0 c 0
 353 0 243 77 182 174 c 0
 121 271 95 391 95 499 c 0
 95 607 121 727 182 824 c 0
 243 921 356 998 499 998 c 0
 617 998 712 953 776 881 c 1
 776 1331 l 1xf8
499 868 m 0
 394 868 336 824 292 755 c 0
 248 686 225 589 225 499 c 0
 225 409 245 312 289 243 c 0
 333 174 394 131 499 131 c 0
 604 131 663 174 707 243 c 0
 751 312 776 409 776 499 c 0
 776 589 751 686 707 755 c 0
 663 824 604 868 499 868 c 0
EndSplineSet
Validated: 1
EndChar
StartChar: e
Encoding: 101 101 5
Width: 996
VWidth: 0
Flags: W
HStem: 0 131<361.443 652.491> 445 128<256 745>
VStem: 118 133<255.851 445 573 731.122> 745 133<573 764.853>
LayerCount: 2
Back
Fore
SplineSet
251 445 m 1
 256 361 274 281 310 230 c 0
 351 169 407 136 497 131 c 0
 579 131 630 153 666 184 c 0
 702 215 722 253 735 294 c 1
 860 256 l 1
 842 200 807 135 748 84 c 0
 689 33 605 0 497 0 c 2
 494 0 l 1
 366 5 263 67 202 159 c 0
 141 251 118 364 118 484 c 0
 118 602 133 727 189 824 c 0
 245 921 351 993 494 996 c 1
 497 996 l 1
 594 993 694 970 768 891 c 0
 842 812 881 684 878 507 c 2
 878 445 l 1
 251 445 l 1
453 860 m 0
 361 845 266 755 256 573 c 1
 745 573 l 1
 740 691 717 750 676 801 c 0
 635 852 545 875 453 860 c 0
EndSplineSet
Validated: 33
EndChar
StartChar: f
Encoding: 102 102 6
Width: 996
VWidth: 0
Flags: W
HStem: 0 21G<338 468> 0 21G<338 468> 727 131<92 323 468 765>
VStem: 338 130<0 727> 812 94<1067.05 1112.05>
LayerCount: 2
Back
Fore
SplineSet
599 1329 m 1xb8
 735 1326 860 1247 906 1073 c 1
 812 1034 l 1
 766 1170 653 1213 561 1198 c 0
 471 1183 418 1122 433 1004 c 0
 441 943 451 899 456 858 c 1
 765 858 l 1
 765 727 l 1
 468 727 l 1
 468 0 l 1
 338 0 l 1
 338 727 l 1
 92 727 l 1
 92 858 l 1
 323 858 l 1
 318 896 312 932 307 986 c 0
 292 1124 343 1319 599 1329 c 1xb8
EndSplineSet
Validated: 33
EndChar
StartChar: g
Encoding: 103 103 7
Width: 996
VWidth: 0
Flags: W
HStem: -335 107<274.608 725.398> 56 116<310.414 726.041> 343 128<341.126 651.272> 873 125<342.116 664.431>
VStem: 82 130<-168.859 6.5188> 128 128<550.9 793.046> 735 128<552.533 804.331> 783 131<-174.194 4.07237 978.906 1065>
LayerCount: 2
Back
Fore
SplineSet
914 1065 m 1xf5
 914 1045 911 1026 906 1006 c 0
 888 957 853 911 781 891 c 1
 850 832 863 717 863 663 c 0xf2
 863 525 732 346 499 343 c 0
 455 343 420 351 392 348 c 0
 323 340 297 312 292 279 c 0
 284 233 309 172 486 172 c 0
 852 172 914 15 914 -82 c 0
 914 -333 650 -335 499 -335 c 0
 374 -335 82 -335 82 -87 c 1xf9
 79 21 168 108 276 128 c 1
 276 131 l 1
 168 159 166 225 169 266 c 0
 174 376 276 410 276 410 c 1
 276 412 l 1
 276 412 128 509 128 663 c 0
 128 932 377 998 497 998 c 0
 594 998 640 983 691 960 c 1
 735 965 780 1001 783 1065 c 1
 914 1065 l 1xf5
497 873 m 0
 369 873 256 806 256 663 c 0xf6
 256 604 304 471 499 471 c 0
 686 471 735 607 735 663 c 0
 735 827 625 873 497 873 c 0
497 56 m 0
 387 56 212 47 212 -84 c 0
 212 -215 399 -228 499 -228 c 0
 599 -228 783 -218 783 -87 c 0xf9
 783 44 607 56 497 56 c 0
EndSplineSet
Validated: 33
EndChar
StartChar: h
Encoding: 104 104 8
Width: 996
VWidth: 0
Flags: W
HStem: 0 21G<118 246 748 881> 0 21G<118 246 748 881> 862 133<372.346 656.427> 1311 20G<118 246>
VStem: 118 128<0 720.967 824 1331> 748 133<0 754.707>
LayerCount: 2
Back
Fore
SplineSet
118 1331 m 1xbc
 246 1331 l 1
 246 1331 246 1022 246 824 c 16
 251 824 l 1
 287 918 413 995 522 995 c 0
 660 995 730 944 794 860 c 0
 840 799 881 674 881 566 c 2
 881 0 l 1
 748 0 l 1
 748 566 l 2
 748 656 730 704 699 763 c 0
 679 801 632 862 522 862 c 0
 417 862 349 817 305 748 c 0
 261 679 246 584 246 494 c 2
 246 0 l 1
 118 0 l 1
 118 494 l 1
 118 1331 l 1xbc
EndSplineSet
Validated: 1
EndChar
StartChar: i
Encoding: 105 105 9
Width: 996
VWidth: 0
Flags: W
HStem: 0 133<84 435 563 914> 865 133<136 435> 1203 249<404.634 591.366>
VStem: 375 246<1231.96 1424.26> 435 128<133 865>
LayerCount: 2
Back
Fore
SplineSet
136 998 m 1xe8
 563 998 l 1
 563 133 l 1
 914 133 l 1
 914 0 l 1
 84 0 l 1
 84 133 l 1
 435 133 l 1
 435 865 l 1
 136 865 l 1
 136 998 l 1xe8
621 1329 m 0xf0
 621 1260 567 1203 498 1203 c 0
 429 1203 375 1260 375 1329 c 0
 375 1398 429 1452 498 1452 c 0
 567 1452 621 1398 621 1329 c 0xf0
EndSplineSet
Validated: 1
EndChar
StartChar: j
Encoding: 106 106 10
Width: 996
VWidth: 0
Flags: W
HStem: -333 115<315.232 611.765> 868 130<271 699> 1206 251<651.634 838.366>
VStem: 138 115<-154.362 20> 622 246<1234.56 1428.04> 699 136<-117.646 868>
LayerCount: 2
Back
Fore
SplineSet
271 998 m 1xf4
 835 998 l 1
 835 169 l 1
 835 169 840 -20 796 -128 c 0
 752 -236 643 -333 461 -333 c 0
 279 -333 187 -236 151 -141 c 0
 115 -46 138 41 138 41 c 1
 253 20 l 1
 253 20 246 -41 266 -95 c 0
 286 -149 318 -218 461 -218 c 0
 604 -218 645 -153 673 -79 c 0
 701 -5 699 169 699 169 c 1
 699 868 l 1
 271 868 l 1
 271 998 l 1xf4
868 1331 m 0xf8
 868 1262 814 1206 745 1206 c 0
 676 1206 622 1262 622 1331 c 0
 622 1400 676 1457 745 1457 c 0
 814 1457 868 1400 868 1331 c 0xf8
EndSplineSet
Validated: 33
EndChar
StartChar: k
Encoding: 107 107 11
Width: 996
VWidth: 0
Flags: W
HStem: 0 21G<92 223 728.832 906> 0 21G<92 223 728.832 906> 1311 20G<92 223>
VStem: 92 131<0 238 428 1331>
LayerCount: 2
Back
Fore
SplineSet
92 1331 m 5xb0
 223 1331 l 5
 223 428 l 1
 753 996 l 1
 847 909 l 1
 492 525 l 1
 906 13 l 1
 906 0 l 1
 745 0 l 1
 399 428 l 1
 223 238 l 1
 223 0 l 1
 92 0 l 1
 92 1331 l 5xb0
EndSplineSet
Validated: 1
EndChar
StartChar: l
Encoding: 108 108 12
Width: 996
VWidth: 0
Flags: W
HStem: 0 131<74 435 563 924> 1203 128<74 435>
VStem: 435 128<131 1203>
LayerCount: 2
Back
Fore
SplineSet
74 1331 m 1
 563 1331 l 1
 563 131 l 1
 924 131 l 1
 924 0 l 1
 74 0 l 1
 74 131 l 1
 435 131 l 1
 435 1203 l 1
 74 1203 l 1
 74 1331 l 1
EndSplineSet
Validated: 1
EndChar
StartChar: m
Encoding: 109 109 13
Width: 996
VWidth: 0
Flags: W
HStem: 0 21G<72 202 433 566 794 927> 0 21G<72 202 433 566 794 927> 978 20G<72 183.757 650.5 747.5>
VStem: 72 130<0 826.058> 433 133<0 804.68> 794 133<0 804.68>
LayerCount: 2
Back
Fore
SplineSet
72 998 m 1xbc
 177 998 l 1
 202 924 l 1
 243 965 284 1001 358 998 c 0
 432 995 479 942 507 896 c 1
 548 950 602 998 699 998 c 0
 796 998 868 919 896 860 c 0
 924 801 927 748 927 717 c 2
 927 0 l 1
 794 0 l 1
 794 717 l 2
 794 740 796 778 783 806 c 0
 770 834 752 863 701 868 c 0
 660 873 627 855 599 827 c 0
 571 799 566 737 566 737 c 1
 566 0 l 1
 433 0 l 1
 433 717 l 2
 433 740 435 778 422 806 c 0
 409 834 391 863 340 868 c 0
 302 873 258 855 230 827 c 0
 212 807 202 781 202 753 c 2
 202 0 l 1
 72 0 l 1
 72 998 l 1xbc
EndSplineSet
Validated: 33
EndChar
StartChar: n
Encoding: 110 110 14
Width: 996
VWidth: 0
Flags: W
HStem: 0 21G<143 274 724 855> 0 21G<143 274 724 855> 978 20G<143 260.045 470 590>
VStem: 143 131<0 793.057> 143 113<927.116 998> 724 131<0 786.08>
LayerCount: 2
Back
Fore
SplineSet
530 998 m 0xb4
 650 998 730 945 791 850 c 0
 852 755 855 648 855 543 c 2
 855 0 l 1
 724 0 l 1
 724 543 l 2
 724 640 717 720 689 771 c 0
 661 822 624 855 540 868 c 0
 425 886 274 853 274 630 c 2
 274 0 l 1
 143 0 l 1xb4
 143 998 l 1
 256 998 l 1xac
 274 909 l 5
 335 960 410 998 530 998 c 0xb4
EndSplineSet
Validated: 33
EndChar
StartChar: o
Encoding: 111 111 15
Width: 996
VWidth: 0
Flags: W
HStem: 0 128<347.395 646.605> 868 130<353.6 647.87>
VStem: 92 131<279.812 709.912> 776 130<288.807 711.751>
LayerCount: 2
Back
Fore
SplineSet
499 998 m 0
 645 998 756 924 817 827 c 0
 878 730 906 610 906 502 c 0
 906 394 878 269 817 172 c 0
 756 75 643 0 497 0 c 0
 351 0 238 75 177 172 c 0
 116 269 92 394 92 502 c 0
 92 610 118 730 179 827 c 0
 240 924 353 998 499 998 c 0
499 868 m 0
 394 868 336 824 292 755 c 0
 248 686 223 589 223 502 c 0
 223 415 243 310 287 241 c 0
 331 172 389 128 497 128 c 0
 605 128 663 172 707 241 c 0
 751 310 776 415 776 502 c 0
 776 589 753 686 709 755 c 0
 665 824 604 868 499 868 c 0
EndSplineSet
Validated: 1
EndChar
StartChar: p
Encoding: 112 112 16
Width: 996
VWidth: 0
Flags: W
HStem: -3 131<341.552 647.87> 865 131<344.699 647.211>
VStem: 95 130<-333 118 250.884 736.332> 95 105<926.32 998> 773 131<277.732 715.904>
LayerCount: 2
Back
Fore
SplineSet
95 998 m 1xd8
 200 998 l 1xd8
 225 873 l 1
 289 945 381 996 499 996 c 0
 642 996 756 921 817 824 c 0
 878 727 904 605 904 497 c 0
 904 389 878 266 817 169 c 0
 756 72 645 -3 499 -3 c 0
 381 -3 289 46 225 118 c 1
 225 -333 l 1
 95 -333 l 1xe8
 95 998 l 1xd8
499 865 m 0
 394 865 323 822 279 753 c 0
 235 684 225 587 225 497 c 0xe8
 225 407 232 310 276 241 c 0
 320 172 394 128 499 128 c 0
 604 128 665 172 709 241 c 0
 753 310 773 407 773 497 c 0
 773 587 753 684 709 753 c 0
 665 822 604 865 499 865 c 0
EndSplineSet
Validated: 1
EndChar
StartChar: q
Encoding: 113 113 17
Width: 996
VWidth: 0
Flags: W
HStem: 0 131<353.6 656.448> 868 130<351.94 656.448>
VStem: 95 130<284.495 713.858> 773 131<-333 120 256.257 741.743> 801 103<935.536 998>
LayerCount: 2
Back
Fore
SplineSet
904 998 m 1xe8
 904 -333 l 1
 773 -333 l 1
 773 120 l 1
 709 48 617 0 499 0 c 0
 353 0 240 75 179 172 c 0
 118 269 95 391 95 499 c 0
 95 607 121 730 182 827 c 0
 243 924 356 998 499 998 c 0
 617 998 709 948 773 876 c 1xf0
 801 998 l 1
 904 998 l 1xe8
499 868 m 0
 394 868 336 824 292 755 c 0
 248 686 225 589 225 499 c 0
 225 409 248 312 292 243 c 0
 336 174 394 131 499 131 c 0
 604 131 678 174 722 243 c 0
 766 312 771 409 771 499 c 0
 771 589 766 686 722 755 c 0
 678 824 604 868 499 868 c 0
EndSplineSet
Validated: 1
EndChar
StartChar: r
Encoding: 114 114 18
Width: 996
VWidth: 0
Flags: W
HStem: 0 21G<182 320> 0 21G<182 320> 978 20G<182 296.494>
VStem: 182 138<0 777.692> 182 110<934.205 998>
LayerCount: 2
Back
Fore
SplineSet
182 998 m 1xa8
 292 998 l 1xa8
 312 909 l 1
 371 968 445 997 538 1001 c 4
 613 1004 702 993 769 932 c 4
 827 879 857 839 895 754 c 1
 787 693 l 1
 759 738 752 768 700 818 c 0
 654 862 574 877 514 870 c 0
 457 863 320 840 320 576 c 2
 320 0 l 1
 182 0 l 1xb0
 182 998 l 1xa8
EndSplineSet
Validated: 33
EndChar
StartChar: s
Encoding: 115 115 19
Width: 996
VWidth: 0
Flags: W
HStem: 0 128<299.922 685.216>
VStem: 120 121<182.75 274> 732 105<764.993 805.002>
LayerCount: 2
Back
Fore
SplineSet
248 919 m 0
 358 1011 573 1016 673 965 c 0
 773 914 819 855 837 771 c 1
 732 727 l 1
 709 788 681 825 640 845 c 0
 599 865 540 873 463 868 c 0
 396 863 338 837 305 799 c 0
 244 727 279 628 376 602 c 0
 473 576 599 548 696 520 c 0
 793 492 842 432 868 348 c 0
 894 264 868 169 804 102 c 0
 737 35 633 0 492 0 c 0
 351 0 258 34 197 90 c 0
 136 146 120 220 120 274 c 1
 241 284 l 1
 246 246 253 212 284 184 c 0
 315 156 372 128 492 128 c 0
 610 128 679 159 712 195 c 0
 745 231 755 271 742 320 c 0
 732 361 706 379 655 397 c 0
 542 433 458 453 361 479 c 0
 264 505 182 553 154 635 c 0
 121 725 138 827 248 919 c 0
EndSplineSet
Validated: 33
EndChar
StartChar: t
Encoding: 116 116 20
Width: 996
VWidth: 0
Flags: W
HStem: 0 131<515 863> 865 133<123 384 515 865>
VStem: 384 131<131 865 998 1229>
LayerCount: 2
Back
Fore
SplineSet
384 1229 m 1
 515 1265 l 1
 515 998 l 1
 865 998 l 1
 865 865 l 5
 515 865 l 5
 515 131 l 1
 863 131 l 1
 863 0 l 1
 384 0 l 1
 384 865 l 5
 123 865 l 5
 123 998 l 1
 384 998 l 1
 384 1229 l 1
EndSplineSet
Validated: 1
EndChar
StartChar: u
Encoding: 117 117 21
Width: 996
VWidth: 0
Flags: W
HStem: 0 21G<739.878 855> 0 21G<739.878 855> 978 20G<143 274 724 855>
VStem: 143 131<211.133 998> 724 131<201.448 998> 745 110<0 55.9787>
LayerCount: 2
Back
Fore
SplineSet
471 -3 m 0xb8
 351 -3 266 51 205 146 c 0
 144 241 143 348 143 453 c 2
 143 998 l 1
 274 998 l 1
 274 453 l 2
 274 356 282 276 310 225 c 0
 338 174 374 141 458 128 c 0
 573 110 724 141 724 364 c 2
 724 998 l 1
 855 998 l 1xb8
 855 0 l 1
 745 0 l 1xb4
 724 82 l 1
 663 31 591 -3 471 -3 c 0xb8
EndSplineSet
Validated: 33
EndChar
StartChar: v
Encoding: 118 118 22
Width: 996
VWidth: 0
Flags: W
HStem: 0 21G<421.166 585.653> 0 21G<421.166 585.653> 978 20G<87 231.792 766.408 911>
LayerCount: 2
Back
Fore
SplineSet
87 998 m 1xa0
 225 998 l 1
 497 197 l 1
 503 164 l 1
 509 197 l 1
 773 998 l 1
 911 998 l 1
 579 0 l 1
 428 0 l 1
 87 998 l 1xa0
EndSplineSet
Validated: 1
EndChar
StartChar: w
Encoding: 119 119 23
Width: 996
VWidth: 0
Flags: W
HStem: 0 21G<162.257 309.617 691.305 838.703> 0 21G<162.257 309.617 691.305 838.703> 978 20G<77 211.627 789.286 922>
LayerCount: 2
Back
Fore
SplineSet
77 998 m 1xa0
 210 998 l 1
 271 248 l 1
 438 684 l 1
 561 684 l 1
 727 251 l 1
 791 998 l 1
 922 998 l 1
 837 0 l 1
 699 0 l 1
 502 512 l 1
 499 522 l 1
 497 512 l 1
 302 0 l 1
 164 0 l 1
 77 998 l 1xa0
EndSplineSet
Validated: 1
EndChar
StartChar: x
Encoding: 120 120 24
Width: 996
VWidth: 0
Flags: W
HStem: 0 21G<77 249.419 749.581 922> 0 21G<77 249.419 749.581 922> 978 20G<87 259.28 741.455 911>
LayerCount: 2
Back
Fore
SplineSet
87 998 m 1xa0
 246 998 l 1
 497 620 l 1
 497 617 l 1
 499 617 l 1
 499 620 l 1
 755 998 l 1
 911 998 l 1
 579 507 l 1
 922 0 l 1
 763 0 l 1
 502 389 l 1
 502 394 l 1
 499 394 l 1
 497 389 l 1
 236 0 l 1
 77 0 l 1
 420 507 l 1
 87 998 l 1xa0
EndSplineSet
Validated: 1
EndChar
StartChar: y
Encoding: 121 121 25
Width: 996
VWidth: 0
Flags: W
HStem: -348 130<154 278.755> 978 20G<87 232.566 765.601 911>
LayerCount: 2
Back
Fore
SplineSet
87 998 m 1
 225 998 l 1
 497 279 l 1
 502 251 l 1
 507 279 l 1
 773 998 l 1
 911 998 l 1
 548 5 l 1
 548 5 484 -141 440 -200 c 0
 340 -333 177 -345 154 -348 c 1
 154 -218 l 1
 180 -213 284 -197 338 -123 c 0
 382 -64 435 79 435 79 c 1
 87 998 l 1
EndSplineSet
Validated: 1
EndChar
StartChar: z
Encoding: 122 122 26
Width: 996
VWidth: 0
Flags: W
HStem: 0 131<271 901> 868 130<118 701>
LayerCount: 2
Back
Fore
SplineSet
118 998 m 1
 870 998 l 1
 870 870 l 1
 271 131 l 1
 901 131 l 1
 901 0 l 1
 97 0 l 1
 97 128 l 1
 701 868 l 1
 118 868 l 1
 118 998 l 1
EndSplineSet
Validated: 1
EndChar
StartChar: braceleft
Encoding: 123 123 59
Width: 996
VWidth: 0
Flags: HW
HStem: -162 100<468.433 708> 658 72<241 335.662> 1378 100<468.433 708>
VStem: 358 106<-58.5052 642.534 745.466 1374.51>
LayerCount: 2
Back
Fore
SplineSet
390 694 m 1
 418 663 464 616 464 534 c 0
 464 363 464 201 464 48 c 0
 464 -60 469 -62 553 -62 c 0
 668 -62 590 -62 708 -62 c 1
 708 -162 l 1
 532 -162 l 1
 529 -162 527 -162 524 -162 c 0
 358 -162 358 -66 358 17 c 0
 358 101 358 384 358 470 c 0
 358 657 324 647 241 658 c 1
 241 730 l 1
 324 741 358 731 358 918 c 0
 358 1004 358 1215 358 1299 c 0
 358 1382 358 1478 524 1478 c 4
 527 1478 529 1478 532 1478 c 5
 708 1478 l 1
 708 1378 l 1
 590 1378 668 1378 553 1378 c 0
 469 1378 464 1375 464 1267 c 0
 464 1114 464 1025 464 854 c 0
 464 772 418 725 390 694 c 1
EndSplineSet
Validated: 1
EndChar
StartChar: bar
Encoding: 124 124 60
Width: 996
VWidth: 0
Flags: W
VStem: 432 131<-162 1500>
LayerCount: 2
Back
Fore
SplineSet
563 -162 m 1
 432 -162 l 1
 432 1500 l 1
 563 1500 l 1
 563 -162 l 1
EndSplineSet
Validated: 1
EndChar
StartChar: braceright
Encoding: 125 125 61
Width: 996
VWidth: 0
Flags: HW
HStem: -162 100<290 529.567> 658 72<662.338 757> 1378 100<290 529.567>
VStem: 534 106<-58.5052 642.534 745.466 1374.51>
LayerCount: 2
Back
Fore
SplineSet
608 694 m 1
 580 725 534 772 534 854 c 0
 534 1025 534 1114 534 1267 c 0
 534 1375 529 1378 445 1378 c 0
 330 1378 408 1378 290 1378 c 1
 290 1478 l 1
 466 1478 l 1
 469 1478 471 1478 474 1478 c 0
 640 1478 640 1382 640 1299 c 0
 640 1215 640 1004 640 918 c 0
 640 731 674 741 757 730 c 1
 757 658 l 1
 674 647 640 657 640 470 c 0
 640 384 640 101 640 17 c 0
 640 -66 640 -162 474 -162 c 0
 471 -162 469 -162 466 -162 c 1
 290 -162 l 1
 290 -62 l 1
 408 -62 330 -62 445 -62 c 0
 529 -62 534 -60 534 48 c 0
 534 201 534 363 534 534 c 0
 534 616 580 663 608 694 c 1
EndSplineSet
Validated: 1
EndChar
StartChar: asciitilde
Encoding: 126 126 62
Width: 996
VWidth: 0
Flags: W
HStem: 1083 96<462.62 680.355> 1173 99<248.318 451.08>
VStem: 154 618
LayerCount: 2
Back
Fore
SplineSet
772 1192 m 17xa0
 718 1135 643 1083 566 1083 c 0xa0
 491 1083 409 1173 352 1173 c 0
 300 1173 261 1143 204 1089 c 9
 154 1154 l 17
 216 1223 277 1272 352 1272 c 0x60
 432 1272 487 1179 566 1179 c 0
 630 1179 670 1208 721 1262 c 9
 772 1192 l 17xa0
EndSplineSet
Validated: 1
EndChar
StartChar: dieresis
Encoding: 168 168 104
Width: 996
VWidth: 0
Flags: W
HStem: 1107 225<224.076 398.54 599.46 774.54>
VStem: 201 221<1129.57 1309.79> 576 222<1129.57 1309.79>
LayerCount: 2
Back
Fore
SplineSet
798 1220 m 0
 798 1158 749 1107 687 1107 c 0
 625 1107 576 1158 576 1220 c 0
 576 1282 625 1332 687 1332 c 0
 749 1332 798 1282 798 1220 c 0
422 1220 m 0
 422 1158 373 1107 311 1107 c 0
 249 1107 201 1158 201 1220 c 0
 201 1282 249 1332 311 1332 c 0
 373 1332 422 1282 422 1220 c 0
EndSplineSet
Validated: 1
EndChar
StartChar: guillemotleft
Encoding: 171 171 107
Width: 996
VWidth: 0
Flags: W
LayerCount: 2
Back
Fore
SplineSet
428 498 m 1
 428 511 l 1
 832 938 l 1
 921 853 l 1
 599 512 l 1
 599 497 l 1
 901 145 l 1
 812 60 l 1
 428 498 l 1
98 498 m 1
 98 511 l 1
 482 938 l 1
 571 853 l 1
 269 512 l 1
 269 497 l 1
 571 145 l 1
 482 60 l 1
 98 498 l 1
EndSplineSet
EndChar
StartChar: degree
Encoding: 176 176 112
Width: 996
VWidth: 0
Flags: W
HStem: 1071 59<441.934 553.82> 1265 59<442.397 551.95>
VStem: 370 60<1141.69 1252.75> 565 62<1141.25 1253.2>
LayerCount: 2
Back
Fore
SplineSet
430 1197 m 0
 430 1159 460 1130 498 1130 c 0
 536 1130 565 1159 565 1197 c 0
 565 1235 536 1265 498 1265 c 0
 460 1265 430 1235 430 1197 c 0
370 1197 m 0
 370 1267 427 1324 498 1324 c 0
 569 1324 627 1267 627 1197 c 0
 627 1127 569 1071 498 1071 c 0
 427 1071 370 1127 370 1197 c 0
EndSplineSet
Validated: 1
EndChar
StartChar: acute
Encoding: 180 180 116
Width: 996
VWidth: 0
Flags: W
HStem: 1083 248
VStem: 384 375
LayerCount: 2
Back
Fore
SplineSet
384 1083 m 17
 634 1331 l 25
 759 1266 l 25
 537 1083 l 25
 384 1083 l 17
EndSplineSet
Validated: 1
EndChar
StartChar: cedilla
Encoding: 184 184 120
Width: 996
VWidth: 0
Flags: W
HStem: -162 198<454 550>
VStem: 454 146<-20.7706 36> 454 96<-162 -105.229>
LayerCount: 2
Back
Fore
SplineSet
454 36 m 9xc0
 600 36 l 25xc0
 550 -162 l 21
 454 -162 l 1xa0
 454 36 l 9xc0
EndSplineSet
Validated: 1
EndChar
StartChar: guillemotright
Encoding: 187 187 123
Width: 996
VWidth: 0
Flags: W
LayerCount: 2
Back
Fore
SplineSet
568 498 m 5
 568 511 l 5
 184 938 l 5
 95 853 l 5
 397 512 l 5
 397 497 l 5
 95 145 l 5
 184 60 l 5
 568 498 l 5
898 498 m 5
 898 511 l 5
 514 938 l 5
 425 853 l 5
 727 512 l 5
 727 497 l 5
 425 145 l 5
 514 60 l 5
 898 498 l 5
EndSplineSet
EndChar
StartChar: questiondown
Encoding: 191 191 127
Width: 996
VWidth: 0
Flags: W
HStem: 1082 251<495.634 682.366>
VStem: 466 246<1110.96 1304.44> 522 136<730.728 880> 807 117<196.926 337>
LayerCount: 2
Back
Fore
SplineSet
466 1208 m 4xd0
 466 1277 520 1333 589 1333 c 4
 658 1333 712 1277 712 1208 c 4
 712 1139 658 1082 589 1082 c 4
 520 1082 466 1139 466 1208 c 4xd0
658 880 m 5xb0
 658 880 671 739 563 626 c 4
 450 508 412 501 374 440 c 4
 336 379 336 342 336 286 c 4
 339 214 400 163 487 137 c 4
 574 111 665 122 737 173 c 4
 806 222 807 293 807 337 c 5
 924 365 l 5
 955 283 909 137 814 73 c 4
 719 9 571 -19 448 17 c 4
 328 53 233 124 205 255 c 4
 185 355 207 425 261 504 c 4
 317 586 361 599 469 719 c 4
 513 768 514 831 522 882 c 5
 658 880 l 5xb0
EndSplineSet
EndChar
StartChar: Ccedilla
Encoding: 199 199 135
Width: 996
VWidth: 0
Flags: HW
HStem: -181.4 198<485 591> 10 131<396.539 671.698> 1208 131<383.219 676.469>
VStem: 82 130<390.666 991.991> 485 106<-181.4 16.6> 796 115<1023.14 1089.51>
LayerCount: 2
Back
Fore
SplineSet
525 1339 m 0
 599 1339 676 1324 748 1275 c 0
 820 1226 875 1145 911 1027 c 1
 796 996 l 1
 768 1093 717 1136 673 1167 c 0
 629 1198 581 1208 525 1208 c 0
 420 1208 328 1154 259 998 c 0
 228 929 212 811 212 691 c 0
 212 571 233 448 261 376 c 0
 322 220 410 141 543 141 c 0
 666 141 773 256 788 366 c 1
 916 348 l 1
 893.068 194.535 773.678 48.8493 610.658 16.5996 c 1
 611 16.5996 l 1
 561 -181.4 l 1
 465 -181.4 l 1
 465 16.5996 l 1
 471.909 16.5996 l 1
 318.984 45.658 205.387 167.902 141 328 c 0
 103 425 82 558 82 689 c 0
 82 820 95 952 141 1052 c 0
 225 1239 369 1339 525 1339 c 0
EndSplineSet
Validated: 1
EndChar
StartChar: Eth
Encoding: 208 208 144
Width: 996
VWidth: 0
Flags: HW
HStem: 0 128<252 584.886> 595 126<0 124 253.658 490> 1201 130<255 601.062>
VStem: 124 129.658<128 595 721 1201> 826 128<383.072 959.299>
LayerCount: 2
Back
Fore
SplineSet
511 1188 m 0
 429 1208 334 1204 255 1201 c 1
 253.658 721 l 1
 490 721 l 1
 490 595 l 1
 253.306 595 l 1
 252 128 l 1
 288 125 409 121 493 141 c 0
 606 169 685 215 739 297 c 0
 793 379 826 507 826 689 c 0
 826 868 785 981 729 1055 c 0
 673 1129 595 1168 511 1188 c 0
247 1331 m 2
 352 1331 440 1333 542 1313 c 1
 647 1287 754 1234 831 1132 c 0
 908 1030 954 886 954 689 c 0
 954 494 920 338 846 225 c 0
 772 112 662.042 38.007 524 15 c 0
 434 0 324 0 235 0 c 1
 124 0 l 1
 124 595 l 1
 0 595 l 1
 0 721 l 1
 124 721 l 1
 124 1331 l 1
 247 1331 l 2
EndSplineSet
EndChar
StartChar: ccedilla
Encoding: 231 231 162
Width: 996
VWidth: 0
Flags: W
HStem: 868 130<365.605 651.85>
VStem: 128 128<285.2 735.921> 454 96<-191.4 -134.63> 742 128<200.881 294.24 674.961 773.732>
LayerCount: 2
Back
Fore
SplineSet
507 998 m 0
 609 998 697 963 758 904 c 0
 819 845 852 763 860 676 c 1
 732 666 l 1
 727 727 702 779 666 812 c 0
 630 845 581 868 507 868 c 0
 402 868 353 827 312 758 c 0
 271 689 256 591 256 499 c 0
 256 409 279 312 323 243 c 0
 367 174 427 131 532 131 c 0
 604 131 648 151 681 182 c 0
 714 213 734 258 742 312 c 1
 870 292 l 1
 857 218 824 144 768 90 c 0
 725.571 49.0866 667.643 18.5059 599.87 6.08673 c 1
 550 -191.4 l 1
 454 -191.4 l 1
 454 6.59961 l 1
 459.626 6.59961 l 1
 349.458 27.2 265.462 93.7565 215 174 c 0
 154 271 128 391 128 499 c 0
 128 607 144 727 200 824 c 0
 256 921 364 998 507 998 c 0
EndSplineSet
Validated: 1
EndChar
StartChar: dotlessi
Encoding: 305 305 259
Width: 996
VWidth: 0
Flags: W
HStem: 0 133<84 435 563 914> 865 133<136 435>
VStem: 435 128<133 865>
LayerCount: 2
Back
Fore
SplineSet
136 998 m 1
 563 998 l 1
 563 133 l 1
 914 133 l 1
 914 0 l 1
 84 0 l 1
 84 133 l 1
 435 133 l 1
 435 865 l 1
 136 865 l 1
 136 998 l 1
EndSplineSet
Validated: 1
EndChar
StartChar: uni0243
Encoding: 579 579 260
Width: 996
VWidth: 0
Flags: HW
HStem: 2 128<235 734.163> 304 126<0 107 235 490> 619 136<237 682.636> 1205 128<237 669.147>
VStem: 107 128<130 304 430 619 755 1205> 754 128<826.916 1121.97> 824 128<218.126 522.375>
LayerCount: 2
Back
Fore
SplineSet
237 1205 m 1xfc
 237 755 l 1
 511 755 l 2
 598 755 655 772 693 808 c 0
 731 844 754 898 754 988 c 0
 754 1044 734 1098 698 1136 c 0
 662 1174 606 1205 511 1205 c 2
 237 1205 l 1xfc
107 1333 m 1
 107 1333 226 1334 346 1334 c 0
 406 1334 466 1334 511 1333 c 1
 634 1333 729 1293 793 1226 c 0
 857 1159 882 1072 882 988 c 0xfc
 882 873 852 778 783 714 c 0
 773 704 762 701 757 698 c 1
 762 695 773 696 783 691 c 1
 803 678 821 665 839 650 c 1
 911 583 952 489 952 376 c 0xfa
 952 266 919 169 852 102 c 0
 785 35 686 2 573 2 c 2
 107 2 l 1
 107 304 l 5
 0 304 l 5
 0 430 l 5
 107 430 l 5
 107 1333 l 1
235 304 m 5
 235 130 l 1
 573 130 l 2
 660 130 722 156 760 194 c 0
 798 232 824 292 824 376 c 0xfa
 824 458 798 511 754 552 c 0
 710 593 642 619 552 619 c 2
 235 619 l 1
 235 430 l 5
 490 430 l 5
 490 304 l 5
 235 304 l 5
EndSplineSet
Validated: 1
EndChar
StartChar: endash
Encoding: 8211 8211 258
Width: 996
VWidth: 0
Flags: HW
HStem: 402 136<128 870>
LayerCount: 2
Back
Fore
SplineSet
128 538 m 1
 870 538 l 1
 870 402 l 1
 128 402 l 1
 128 538 l 1
EndSplineSet
Validated: 1
EndChar
StartChar: emdash
Encoding: 8212 8212 257
Width: 996
VWidth: 0
Flags: HW
HStem: 402 136<72 927>
LayerCount: 2
Back
Fore
SplineSet
0 538 m 5
 996 538 l 1
 996 402 l 1
 0 402 l 5
 0 538 l 5
EndSplineSet
EndChar
StartChar: quoteright
Encoding: 8217 8217 263
Width: 996
VWidth: 0
Flags: W
HStem: 998 391<437.103 484>
VStem: 361 279
LayerCount: 2
Back
Fore
SplineSet
440 1389 m 29
 640 1358 l 29
 484 998 l 29
 361 998 l 29
 440 1389 l 29
EndSplineSet
Validated: 1
EndChar
StartChar: quotedblleft
Encoding: 8220 8220 266
Width: 996
VWidth: 0
Flags: W
LayerCount: 2
Back
Fore
SplineSet
697 1360 m 25
 537 1329 l 25
 663 998 l 25
 756 998 l 25
 697 1360 l 25
417 1304 m 25
 257 1273 l 25
 453 998 l 29
 546 998 l 25
 417 1304 l 25
EndSplineSet
EndChar
StartChar: quotedblright
Encoding: 8221 8221 266
Width: 996
VWidth: 0
HStem: 998 362
VStem: 240 499
LayerCount: 2
Back
Fore
SplineSet
299 1360 m 25
 459 1329 l 25
 333 998 l 25
 240 998 l 29
 299 1360 l 25
579 1304 m 25
 739 1273 l 25
 543 998 l 25
 450 998 l 25
 579 1304 l 25
EndSplineSet
EndChar
StartChar: Euro
Encoding: 8364 8364 256
Width: 996
VWidth: 0
Flags: W
HStem: 10 131<448.539 723.698> 470 116<22 138 286 634> 1208 131<435.219 728.469>
VStem: 134 130<586 701 827 991.848> 154 132<334.157 470> 848 115<1023.14 1089.51>
LayerCount: 2
Back
Fore
SplineSet
577 1339 m 0xf4
 651 1339 728 1324 800 1275 c 0
 872 1226 927 1145 963 1027 c 1
 848 996 l 1
 820 1093 769 1136 725 1167 c 0
 681 1198 633 1208 577 1208 c 0
 472 1208 380 1154 311 998 c 0
 292 955 279 896 271 827 c 1
 634 852 l 1
 634 735 l 1
 264 709 l 1
 264 703 264 697 264 691 c 0xf4
 264 656 266 621 269 586 c 1
 634 586 l 1
 634 470 l 1
 286 470 l 1
 294 434 303 402 313 376 c 0
 374 220 462 141 595 141 c 0
 718 141 825 256 840 366 c 1
 968 348 l 1
 942 174 792 10 595 10 c 0
 406 10 267 144 193 328 c 0
 177 370 164 418 154 470 c 1xec
 22 470 l 1
 22 586 l 1
 138 586 l 1
 135 620 134 654 134 689 c 0
 134 693 134 697 134 701 c 1
 22 693 l 1
 22 809 l 1
 139 818 l 1
 146 904 162 984 193 1052 c 0
 277 1239 421 1339 577 1339 c 0xf4
EndSplineSet
Validated: 1
EndChar
